<svg width="147" height="24" viewBox="0 0 147 24" fill="none" xmlns="http://www.w3.org/2000/svg">
<path d="M17.1381 11.6354H22.0442V21.0497C20.7845 22 19.326 22.7293 17.6685 23.2376C16.0111 23.7459 14.3425 24 12.663 24C10.2541 24 8.0884 23.4917 6.16575 22.4751C4.24309 21.4365 2.72928 20.0111 1.62431 18.1989C0.541437 16.3646 0 14.2983 0 12C0 9.70166 0.541437 7.64641 1.62431 5.83425C2.72928 4 4.25414 2.57459 6.1989 1.55801C8.14365 0.519337 10.3315 0 12.7624 0C14.7956 0 16.6409 0.342541 18.2983 1.02762C19.9558 1.71271 21.3481 2.70718 22.4751 4.01105L19.0276 7.19337C17.3702 5.44751 15.3702 4.57459 13.0276 4.57459C11.547 4.57459 10.232 4.88398 9.08287 5.50276C7.9337 6.12155 7.03867 6.99447 6.39779 8.12155C5.75691 9.24862 5.43646 10.5414 5.43646 12C5.43646 13.4365 5.75691 14.7182 6.39779 15.8453C7.03867 16.9724 7.92265 17.8564 9.04972 18.4972C10.1989 19.116 11.5028 19.4254 12.9613 19.4254C14.5083 19.4254 15.9006 19.0939 17.1381 18.4309V11.6354Z" fill="white"/>
<path d="M38.1708 15.3812V23.6022H32.8006V15.3149L23.8172 0.397788H29.5188L35.7177 10.7072L41.9166 0.397788H47.1873L38.1708 15.3812Z" fill="white"/>
<path d="M70.3236 23.6022L70.2905 9.67956L63.4618 21.1492H61.0419L54.2463 9.9779V23.6022H49.2076V0.397788H53.6496L62.3347 14.8177L70.8872 0.397788H75.296L75.3623 23.6022H70.3236Z" fill="white"/>
<path d="M98.5303 17.4035H85.6022L82.8176 23.6024H80.2651L90.8729 0.397949H93.2928L103.9 23.6024H101.315L98.5303 17.4035ZM97.6353 15.4145L92.0662 2.95044L86.4972 15.4145H97.6353Z" fill="white"/>
<path d="M123.584 23.6024L118.281 16.1438C117.684 16.2101 117.065 16.2433 116.424 16.2433H110.192V23.6024H107.739V0.397949H116.424C119.385 0.397949 121.706 1.10513 123.385 2.5195C125.065 3.93386 125.905 5.87861 125.905 8.35375C125.905 10.1659 125.441 11.7018 124.513 12.9615C123.606 14.1991 122.303 15.0941 120.601 15.6466L126.269 23.6024H123.584ZM116.358 14.1549C118.656 14.1549 120.413 13.6466 121.629 12.63C122.844 11.6134 123.452 10.188 123.452 8.35375C123.452 6.4753 122.844 5.03883 121.629 4.04436C120.413 3.02778 118.656 2.5195 116.358 2.5195H110.192V14.1549H116.358Z" fill="white"/>
<path d="M135.879 2.5195H127.724V0.397949H146.487V2.5195H138.332V23.6024H135.879V2.5195Z" fill="white"/>
</svg>
