<svg width="93" height="16" viewBox="0 0 93 16" fill="none" xmlns="http://www.w3.org/2000/svg">
<path d="M11.4342 7.7721H14.5005V13.6561C13.7132 14.25 12.8016 14.7058 11.7657 15.0235C10.7298 15.3412 9.68699 15.5 8.63727 15.5C7.13174 15.5 5.77815 15.1823 4.57649 14.547C3.37483 13.8978 2.4287 13.0069 1.73809 11.8743C1.0613 10.7279 0.7229 9.43646 0.7229 8C0.7229 6.56354 1.0613 5.27901 1.73809 4.14641C2.4287 3 3.38174 2.10912 4.59721 1.47376C5.81268 0.824585 7.18008 0.5 8.69942 0.5C9.97014 0.5 11.1235 0.714088 12.1594 1.14226C13.1953 1.57044 14.0654 2.19199 14.7699 3.00691L12.6152 4.99586C11.5793 3.9047 10.3293 3.35912 8.86517 3.35912C7.93975 3.35912 7.11793 3.55249 6.3997 3.93923C5.68146 4.32597 5.12207 4.87155 4.72152 5.57597C4.32097 6.28039 4.12069 7.0884 4.12069 8C4.12069 8.89779 4.32097 9.69889 4.72152 10.4033C5.12207 11.1077 5.67456 11.6602 6.37898 12.0608C7.09721 12.4475 7.91213 12.6409 8.82373 12.6409C9.79058 12.6409 10.6607 12.4337 11.4342 12.0193V7.7721Z" fill="#0D29BA"/>
<path d="M24.5796 10.1133V15.2514H21.2233V10.0718L15.6086 0.748618H19.1722L23.0465 7.19199L26.9208 0.748618H30.215L24.5796 10.1133Z" fill="#0D29BA"/>
<path d="M44.6752 15.2514L44.6545 6.54972L40.3865 13.7182H38.8741L34.6268 6.73619V15.2514H31.4777V0.748618H34.2539L39.6821 9.76105L45.0274 0.748618H47.7829L47.8243 15.2514H44.6752Z" fill="#0D29BA"/>
<path d="M62.3044 11.377H54.2243L52.484 15.2513H50.8887L57.5185 0.748535H59.0309L65.6608 15.2513H64.0448L62.3044 11.377ZM61.745 10.1339L58.2644 2.34384L54.7837 10.1339H61.745Z" fill="#0D29BA"/>
<path d="M77.9632 15.2513L74.6483 10.5897C74.2754 10.6311 73.8886 10.6519 73.4881 10.6519H69.593V15.2513H68.0599V0.748535H73.4881C75.3389 0.748535 76.7892 1.19052 77.8389 2.0745C78.8886 2.95848 79.4135 4.17395 79.4135 5.72091C79.4135 6.85351 79.1234 7.81345 78.5433 8.60075C77.977 9.37423 77.1621 9.93362 76.0986 10.2789L79.6414 15.2513H77.9632ZM73.4466 9.3466C74.8831 9.3466 75.9812 9.02892 76.7408 8.39356C77.5005 7.75821 77.8803 6.86732 77.8803 5.72091C77.8803 4.54688 77.5005 3.64909 76.7408 3.02754C75.9812 2.39218 74.8831 2.0745 73.4466 2.0745H69.593V9.3466H73.4466Z" fill="#0D29BA"/>
<path d="M85.6474 2.0745H80.5507V0.748535H92.2772V2.0745H87.1805V15.2513H85.6474V2.0745Z" fill="#0D29BA"/>
</svg>
