<svg width="36" height="36" viewBox="0 0 36 36" fill="none" xmlns="http://www.w3.org/2000/svg">
<path d="M2 18C2 9.16344 9.16344 2 18 2C26.8366 2 34 9.16344 34 18C34 26.8366 26.8366 34 18 34C9.16344 34 2 26.8366 2 18Z" fill="#F4EBFF"/>
<path d="M21.3334 14.6665L14.6667 21.3332M14.6667 21.3332H21.3334M14.6667 21.3332V14.6665" stroke="#0D29BA" stroke-width="1.33333" stroke-linecap="round" stroke-linejoin="round"/>
<path d="M18 32C10.268 32 4 25.732 4 18H0C0 27.9411 8.05887 36 18 36V32ZM32 18C32 25.732 25.732 32 18 32V36C27.9411 36 36 27.9411 36 18H32ZM18 4C25.732 4 32 10.268 32 18H36C36 8.05887 27.9411 0 18 0V4ZM18 0C8.05887 0 0 8.05887 0 18H4C4 10.268 10.268 4 18 4V0Z" fill="#F9F5FF"/>
</svg>
